<svg width="478" height="76" viewBox="0 0 478 76" fill="none" xmlns="http://www.w3.org/2000/svg">
<path d="M31.6477 21.6364V32.5455H0.113636V21.6364H31.6477ZM7.27273 9.09091H21.7955V57.9091C21.7955 59.25 22 60.2955 22.4091 61.0455C22.8182 61.7727 23.3864 62.2841 24.1136 62.5795C24.8636 62.875 25.7273 63.0227 26.7045 63.0227C27.3864 63.0227 28.0682 62.9659 28.75 62.8523C29.4318 62.7159 29.9545 62.6136 30.3182 62.5455L32.6023 73.3523C31.875 73.5795 30.8523 73.8409 29.5341 74.1364C28.2159 74.4545 26.6136 74.6477 24.7273 74.7159C21.2273 74.8523 18.1591 74.3864 15.5227 73.3182C12.9091 72.25 10.875 70.5909 9.42045 68.3409C7.96591 66.0909 7.25 63.25 7.27273 59.8182V9.09091ZM41.108 74V21.6364H55.6307V74H41.108ZM48.4034 14.8864C46.2443 14.8864 44.392 14.1705 42.8466 12.7386C41.3239 11.2841 40.5625 9.54545 40.5625 7.52272C40.5625 5.52272 41.3239 3.80682 42.8466 2.375C44.392 0.920452 46.2443 0.193178 48.4034 0.193178C50.5625 0.193178 52.4034 0.920452 53.9261 2.375C55.4716 3.80682 56.2443 5.52272 56.2443 7.52272C56.2443 9.54545 55.4716 11.2841 53.9261 12.7386C52.4034 14.1705 50.5625 14.8864 48.4034 14.8864ZM90.9233 75.0227C85.5597 75.0227 80.946 73.8864 77.0824 71.6136C73.2415 69.3182 70.2869 66.1364 68.2188 62.0682C66.1733 58 65.1506 53.3182 65.1506 48.0227C65.1506 42.6591 66.1847 37.9545 68.2528 33.9091C70.3438 29.8409 73.3097 26.6705 77.1506 24.3977C80.9915 22.1023 85.5597 20.9545 90.8551 20.9545C95.4233 20.9545 99.4233 21.7841 102.855 23.4432C106.287 25.1023 109.003 27.4318 111.003 30.4318C113.003 33.4318 114.105 36.9545 114.31 41H100.605C100.219 38.3864 99.196 36.2841 97.5369 34.6932C95.9006 33.0795 93.7528 32.2727 91.0938 32.2727C88.8438 32.2727 86.8778 32.8864 85.196 34.1136C83.5369 35.3182 82.2415 37.0795 81.3097 39.3977C80.3778 41.7159 79.9119 44.5227 79.9119 47.8182C79.9119 51.1591 80.3665 54 81.2756 56.3409C82.2074 58.6818 83.5142 60.4659 85.196 61.6932C86.8778 62.9205 88.8438 63.5341 91.0938 63.5341C92.7528 63.5341 94.2415 63.1932 95.5597 62.5114C96.9006 61.8295 98.0028 60.8409 98.8665 59.5455C99.7528 58.2273 100.332 56.6477 100.605 54.8068H114.31C114.082 58.8068 112.991 62.3295 111.037 65.375C109.105 68.3977 106.435 70.7614 103.026 72.4659C99.6165 74.1705 95.5824 75.0227 90.9233 75.0227ZM136.767 58.9318L136.801 41.5114H138.915L155.688 21.6364H172.358L149.824 47.9545H146.381L136.767 58.9318ZM123.608 74V4.18182H138.131V74H123.608ZM156.335 74L140.926 51.1932L150.608 40.9318L173.347 74H156.335ZM201.19 75.0227C195.804 75.0227 191.168 73.9318 187.281 71.75C183.418 69.5455 180.44 66.4318 178.349 62.4091C176.259 58.3636 175.213 53.5795 175.213 48.0568C175.213 42.6705 176.259 37.9432 178.349 33.875C180.44 29.8068 183.384 26.6364 187.179 24.3636C190.997 22.0909 195.474 20.9545 200.611 20.9545C204.065 20.9545 207.281 21.5114 210.259 22.625C213.259 23.7159 215.872 25.3636 218.099 27.5682C220.349 29.7727 222.099 32.5455 223.349 35.8864C224.599 39.2045 225.224 43.0909 225.224 47.5455V51.5341H181.009V42.5341H211.554C211.554 40.4432 211.099 38.5909 210.19 36.9773C209.281 35.3636 208.02 34.1023 206.406 33.1932C204.815 32.2614 202.963 31.7955 200.849 31.7955C198.645 31.7955 196.69 32.3068 194.986 33.3295C193.304 34.3295 191.986 35.6818 191.031 37.3864C190.077 39.0682 189.588 40.9432 189.565 43.0114V51.5682C189.565 54.1591 190.043 56.3977 190.997 58.2841C191.974 60.1705 193.349 61.625 195.122 62.6477C196.895 63.6705 198.997 64.1818 201.429 64.1818C203.043 64.1818 204.52 63.9545 205.861 63.5C207.202 63.0455 208.349 62.3636 209.304 61.4545C210.259 60.5455 210.986 59.4318 211.486 58.1136L224.918 59C224.236 62.2273 222.838 65.0455 220.724 67.4545C218.634 69.8409 215.929 71.7045 212.611 73.0455C209.315 74.3636 205.509 75.0227 201.19 75.0227ZM234.702 74V21.6364H248.781V30.7727H249.327C250.281 27.5227 251.884 25.0682 254.134 23.4091C256.384 21.7273 258.974 20.8864 261.906 20.8864C262.634 20.8864 263.418 20.9318 264.259 21.0227C265.099 21.1136 265.838 21.2386 266.474 21.3977V34.2841C265.793 34.0795 264.849 33.8977 263.645 33.7386C262.44 33.5795 261.338 33.5 260.338 33.5C258.202 33.5 256.293 33.9659 254.611 34.8977C252.952 35.8068 251.634 37.0795 250.656 38.7159C249.702 40.3523 249.224 42.2386 249.224 44.375V74H234.702Z" fill="black"/>
<path d="M288.506 43.7273V74H273.983V21.6364H287.824V30.875H288.438C289.597 27.8295 291.54 25.4205 294.267 23.6477C296.994 21.8523 300.301 20.9545 304.188 20.9545C307.824 20.9545 310.994 21.75 313.699 23.3409C316.403 24.9318 318.506 27.2045 320.006 30.1591C321.506 33.0909 322.256 36.5909 322.256 40.6591V74H307.733V43.25C307.756 40.0455 306.938 37.5455 305.278 35.75C303.619 33.9318 301.335 33.0227 298.426 33.0227C296.472 33.0227 294.744 33.4432 293.244 34.2841C291.767 35.125 290.608 36.3523 289.767 37.9659C288.949 39.5568 288.528 41.4773 288.506 43.7273ZM357.361 75.0227C352.065 75.0227 347.486 73.8977 343.622 71.6477C339.781 69.375 336.815 66.2159 334.724 62.1705C332.634 58.1023 331.588 53.3864 331.588 48.0227C331.588 42.6136 332.634 37.8864 334.724 33.8409C336.815 29.7727 339.781 26.6136 343.622 24.3636C347.486 22.0909 352.065 20.9545 357.361 20.9545C362.656 20.9545 367.224 22.0909 371.065 24.3636C374.929 26.6136 377.906 29.7727 379.997 33.8409C382.088 37.8864 383.134 42.6136 383.134 48.0227C383.134 53.3864 382.088 58.1023 379.997 62.1705C377.906 66.2159 374.929 69.375 371.065 71.6477C367.224 73.8977 362.656 75.0227 357.361 75.0227ZM357.429 63.7727C359.838 63.7727 361.849 63.0909 363.463 61.7273C365.077 60.3409 366.293 58.4545 367.111 56.0682C367.952 53.6818 368.372 50.9659 368.372 47.9205C368.372 44.875 367.952 42.1591 367.111 39.7727C366.293 37.3864 365.077 35.5 363.463 34.1136C361.849 32.7273 359.838 32.0341 357.429 32.0341C354.997 32.0341 352.952 32.7273 351.293 34.1136C349.656 35.5 348.418 37.3864 347.577 39.7727C346.759 42.1591 346.349 44.875 346.349 47.9205C346.349 50.9659 346.759 53.6818 347.577 56.0682C348.418 58.4545 349.656 60.3409 351.293 61.7273C352.952 63.0909 354.997 63.7727 357.429 63.7727ZM420.429 21.6364V32.5455H388.895V21.6364H420.429ZM396.054 9.09091H410.577V57.9091C410.577 59.25 410.781 60.2955 411.19 61.0455C411.599 61.7727 412.168 62.2841 412.895 62.5795C413.645 62.875 414.509 63.0227 415.486 63.0227C416.168 63.0227 416.849 62.9659 417.531 62.8523C418.213 62.7159 418.736 62.6136 419.099 62.5455L421.384 73.3523C420.656 73.5795 419.634 73.8409 418.315 74.1364C416.997 74.4545 415.395 74.6477 413.509 74.7159C410.009 74.8523 406.94 74.3864 404.304 73.3182C401.69 72.25 399.656 70.5909 398.202 68.3409C396.747 66.0909 396.031 63.25 396.054 59.8182V9.09091ZM453.19 75.0227C447.804 75.0227 443.168 73.9318 439.281 71.75C435.418 69.5455 432.44 66.4318 430.349 62.4091C428.259 58.3636 427.213 53.5795 427.213 48.0568C427.213 42.6705 428.259 37.9432 430.349 33.875C432.44 29.8068 435.384 26.6364 439.179 24.3636C442.997 22.0909 447.474 20.9545 452.611 20.9545C456.065 20.9545 459.281 21.5114 462.259 22.625C465.259 23.7159 467.872 25.3636 470.099 27.5682C472.349 29.7727 474.099 32.5455 475.349 35.8864C476.599 39.2045 477.224 43.0909 477.224 47.5455V51.5341H433.009V42.5341H463.554C463.554 40.4432 463.099 38.5909 462.19 36.9773C461.281 35.3636 460.02 34.1023 458.406 33.1932C456.815 32.2614 454.963 31.7955 452.849 31.7955C450.645 31.7955 448.69 32.3068 446.986 33.3295C445.304 34.3295 443.986 35.6818 443.031 37.3864C442.077 39.0682 441.588 40.9432 441.565 43.0114V51.5682C441.565 54.1591 442.043 56.3977 442.997 58.2841C443.974 60.1705 445.349 61.625 447.122 62.6477C448.895 63.6705 450.997 64.1818 453.429 64.1818C455.043 64.1818 456.52 63.9545 457.861 63.5C459.202 63.0455 460.349 62.3636 461.304 61.4545C462.259 60.5455 462.986 59.4318 463.486 58.1136L476.918 59C476.236 62.2273 474.838 65.0455 472.724 67.4545C470.634 69.8409 467.929 71.7045 464.611 73.0455C461.315 74.3636 457.509 75.0227 453.19 75.0227Z" fill="#00D984"/>
</svg>
