<svg width="402" height="61" viewBox="0 0 402 61" fill="none" xmlns="http://www.w3.org/2000/svg">
<path d="M30.9264 59C28.073 59.5333 25.273 59.76 22.5263 59.68C19.8063 59.6267 17.3663 59.1333 15.2063 58.2C13.0463 57.24 11.4063 55.7333 10.2863 53.68C9.29968 51.8133 8.77968 49.9067 8.72635 47.96C8.67301 46.0133 8.64635 43.8133 8.64635 41.36V3.8H18.2463V40.8C18.2463 42.5333 18.2597 44.0533 18.2863 45.36C18.3397 46.6667 18.6197 47.7333 19.1263 48.56C20.0863 50.16 21.6197 51.0533 23.7263 51.24C25.833 51.4267 28.233 51.32 30.9264 50.92V59ZM0.806348 23.36V15.8H30.9264V23.36H0.806348ZM41.0157 9.24V0.399999H50.6557V9.24H41.0157ZM41.0157 59V15.8H50.6557V59H41.0157ZM81.3976 60.2C76.9443 60.2 73.1443 59.2133 69.9976 57.24C66.8509 55.24 64.4376 52.52 62.7576 49.08C61.1043 45.64 60.2643 41.7467 60.2376 37.4C60.2643 32.9733 61.1309 29.0533 62.8376 25.64C64.5709 22.2 67.0243 19.5067 70.1976 17.56C73.3709 15.5867 77.1443 14.6 81.5176 14.6C86.4243 14.6 90.5709 15.84 93.9576 18.32C97.3709 20.7733 99.5976 24.1333 100.638 28.4L91.0376 31C90.2909 28.68 89.0509 26.88 87.3176 25.6C85.5843 24.2933 83.6109 23.64 81.3976 23.64C78.8909 23.64 76.8243 24.24 75.1976 25.44C73.5709 26.6133 72.3709 28.24 71.5976 30.32C70.8243 32.4 70.4376 34.76 70.4376 37.4C70.4376 41.5067 71.3576 44.8267 73.1976 47.36C75.0376 49.8933 77.7709 51.16 81.3976 51.16C83.9576 51.16 85.9709 50.5733 87.4376 49.4C88.9309 48.2267 90.0509 46.5333 90.7976 44.32L100.638 46.52C99.3043 50.92 96.9709 54.3067 93.6376 56.68C90.3043 59.0267 86.2243 60.2 81.3976 60.2ZM108.573 59L108.653 1.4H118.413V36.6L134.213 15.8H146.253L129.493 37.4L147.693 59H134.933L118.413 38.2V59H108.573ZM170.559 60.2C166.186 60.2 162.346 59.2533 159.039 57.36C155.732 55.4667 153.146 52.84 151.279 49.48C149.439 46.12 148.519 42.2533 148.519 37.88C148.519 33.16 149.426 29.0667 151.239 25.6C153.052 22.1067 155.572 19.4 158.799 17.48C162.026 15.56 165.759 14.6 169.999 14.6C174.479 14.6 178.279 15.6533 181.399 17.76C184.546 19.84 186.879 22.7867 188.399 26.6C189.919 30.4133 190.492 34.9067 190.119 40.08H180.559V36.56C180.532 31.8667 179.706 28.44 178.079 26.28C176.452 24.12 173.892 23.04 170.399 23.04C166.452 23.04 163.519 24.2667 161.599 26.72C159.679 29.1467 158.719 32.7067 158.719 37.4C158.719 41.7733 159.679 45.16 161.599 47.56C163.519 49.96 166.319 51.16 169.999 51.16C172.372 51.16 174.412 50.64 176.119 49.6C177.852 48.5333 179.186 47 180.119 45L189.639 47.88C187.986 51.7733 185.426 54.8 181.959 56.96C178.519 59.12 174.719 60.2 170.559 60.2ZM155.679 40.08V32.8H185.399V40.08H155.679ZM199.044 59V15.8H207.564V26.32L206.524 24.96C207.057 23.52 207.764 22.2133 208.644 21.04C209.551 19.84 210.631 18.8533 211.884 18.08C212.951 17.36 214.124 16.8 215.404 16.4C216.711 15.9733 218.044 15.72 219.404 15.64C220.764 15.5333 222.084 15.5867 223.364 15.8V24.8C222.084 24.4267 220.604 24.3067 218.924 24.44C217.271 24.5733 215.777 25.04 214.444 25.84C213.111 26.56 212.017 27.48 211.164 28.6C210.337 29.72 209.724 31 209.324 32.44C208.924 33.8533 208.724 35.3867 208.724 37.04V59H199.044ZM260.877 59V38.2C260.877 36.84 260.784 35.3333 260.597 33.68C260.41 32.0267 259.97 30.44 259.277 28.92C258.61 27.3733 257.597 26.1067 256.237 25.12C254.904 24.1333 253.09 23.64 250.797 23.64C249.57 23.64 248.357 23.84 247.157 24.24C245.957 24.64 244.864 25.3333 243.877 26.32C242.917 27.28 242.144 28.6133 241.557 30.32C240.97 32 240.677 34.16 240.677 36.8L234.957 34.36C234.957 30.68 235.664 27.3467 237.077 24.36C238.517 21.3733 240.624 19 243.397 17.24C246.17 15.4533 249.584 14.56 253.637 14.56C256.837 14.56 259.477 15.0933 261.557 16.16C263.637 17.2267 265.29 18.5867 266.517 20.24C267.744 21.8933 268.65 23.6533 269.237 25.52C269.824 27.3867 270.197 29.16 270.357 30.84C270.544 32.4933 270.637 33.84 270.637 34.88V59H260.877ZM230.917 59V15.8H239.517V29.2H240.677V59H230.917ZM299.452 60.2C295.132 60.2 291.359 59.2267 288.132 57.28C284.905 55.3333 282.399 52.6533 280.612 49.24C278.852 45.8 277.972 41.8533 277.972 37.4C277.972 32.8667 278.879 28.8933 280.692 25.48C282.505 22.0667 285.025 19.4 288.252 17.48C291.479 15.56 295.212 14.6 299.452 14.6C303.799 14.6 307.585 15.5733 310.812 17.52C314.039 19.4667 316.545 22.16 318.332 25.6C320.119 29.0133 321.012 32.9467 321.012 37.4C321.012 41.88 320.105 45.84 318.292 49.28C316.505 52.6933 313.999 55.3733 310.772 57.32C307.545 59.24 303.772 60.2 299.452 60.2ZM299.452 51.16C303.292 51.16 306.145 49.88 308.012 47.32C309.879 44.76 310.812 41.4533 310.812 37.4C310.812 33.2133 309.865 29.88 307.972 27.4C306.079 24.8933 303.239 23.64 299.452 23.64C296.865 23.64 294.732 24.2267 293.052 25.4C291.399 26.5467 290.172 28.16 289.372 30.24C288.572 32.2933 288.172 34.68 288.172 37.4C288.172 41.5867 289.119 44.9333 291.012 47.44C292.932 49.92 295.745 51.16 299.452 51.16ZM355.145 59C352.292 59.5333 349.492 59.76 346.745 59.68C344.025 59.6267 341.585 59.1333 339.425 58.2C337.265 57.24 335.625 55.7333 334.505 53.68C333.518 51.8133 332.998 49.9067 332.945 47.96C332.892 46.0133 332.865 43.8133 332.865 41.36V3.8H342.465V40.8C342.465 42.5333 342.478 44.0533 342.505 45.36C342.558 46.6667 342.838 47.7333 343.345 48.56C344.305 50.16 345.838 51.0533 347.945 51.24C350.052 51.4267 352.452 51.32 355.145 50.92V59ZM325.025 23.36V15.8H355.145V23.36H325.025ZM381.887 60.2C377.514 60.2 373.674 59.2533 370.367 57.36C367.06 55.4667 364.474 52.84 362.607 49.48C360.767 46.12 359.847 42.2533 359.847 37.88C359.847 33.16 360.754 29.0667 362.567 25.6C364.38 22.1067 366.9 19.4 370.127 17.48C373.354 15.56 377.087 14.6 381.327 14.6C385.807 14.6 389.607 15.6533 392.727 17.76C395.874 19.84 398.207 22.7867 399.727 26.6C401.247 30.4133 401.82 34.9067 401.447 40.08H391.887V36.56C391.86 31.8667 391.034 28.44 389.407 26.28C387.78 24.12 385.22 23.04 381.727 23.04C377.78 23.04 374.847 24.2667 372.927 26.72C371.007 29.1467 370.047 32.7067 370.047 37.4C370.047 41.7733 371.007 45.16 372.927 47.56C374.847 49.96 377.647 51.16 381.327 51.16C383.7 51.16 385.74 50.64 387.447 49.6C389.18 48.5333 390.514 47 391.447 45L400.967 47.88C399.314 51.7733 396.754 54.8 393.287 56.96C389.847 59.12 386.047 60.2 381.887 60.2ZM367.007 40.08V32.8H396.727V40.08H367.007Z" fill="black"/>
</svg>
