<svg width="670" height="143" viewBox="0 0 670 143" fill="none" xmlns="http://www.w3.org/2000/svg">
<path d="M209.648 52.6364V63.5455H178.114V52.6364H209.648ZM185.273 40.0909H199.795V88.9091C199.795 90.25 200 91.2955 200.409 92.0455C200.818 92.7727 201.386 93.2841 202.114 93.5795C202.864 93.875 203.727 94.0227 204.705 94.0227C205.386 94.0227 206.068 93.9659 206.75 93.8523C207.432 93.7159 207.955 93.6136 208.318 93.5455L210.602 104.352C209.875 104.58 208.852 104.841 207.534 105.136C206.216 105.455 204.614 105.648 202.727 105.716C199.227 105.852 196.159 105.386 193.523 104.318C190.909 103.25 188.875 101.591 187.42 99.3409C185.966 97.0909 185.25 94.25 185.273 90.8182V40.0909ZM219.108 105V52.6364H233.631V105H219.108ZM226.403 45.8864C224.244 45.8864 222.392 45.1705 220.847 43.7386C219.324 42.2841 218.562 40.5455 218.562 38.5227C218.562 36.5227 219.324 34.8068 220.847 33.375C222.392 31.9205 224.244 31.1932 226.403 31.1932C228.563 31.1932 230.403 31.9205 231.926 33.375C233.472 34.8068 234.244 36.5227 234.244 38.5227C234.244 40.5455 233.472 42.2841 231.926 43.7386C230.403 45.1705 228.563 45.8864 226.403 45.8864ZM268.923 106.023C263.56 106.023 258.946 104.886 255.082 102.614C251.241 100.318 248.287 97.1364 246.219 93.0682C244.173 89 243.151 84.3182 243.151 79.0227C243.151 73.6591 244.185 68.9545 246.253 64.9091C248.344 60.8409 251.31 57.6705 255.151 55.3977C258.991 53.1023 263.56 51.9545 268.855 51.9545C273.423 51.9545 277.423 52.7841 280.855 54.4432C284.287 56.1023 287.003 58.4318 289.003 61.4318C291.003 64.4318 292.105 67.9545 292.31 72H278.605C278.219 69.3864 277.196 67.2841 275.537 65.6932C273.901 64.0795 271.753 63.2727 269.094 63.2727C266.844 63.2727 264.878 63.8864 263.196 65.1136C261.537 66.3182 260.241 68.0795 259.31 70.3977C258.378 72.7159 257.912 75.5227 257.912 78.8182C257.912 82.1591 258.366 85 259.276 87.3409C260.207 89.6818 261.514 91.4659 263.196 92.6932C264.878 93.9205 266.844 94.5341 269.094 94.5341C270.753 94.5341 272.241 94.1932 273.56 93.5114C274.901 92.8295 276.003 91.8409 276.866 90.5455C277.753 89.2273 278.332 87.6477 278.605 85.8068H292.31C292.082 89.8068 290.991 93.3295 289.037 96.375C287.105 99.3977 284.435 101.761 281.026 103.466C277.616 105.17 273.582 106.023 268.923 106.023ZM314.767 89.9318L314.801 72.5114H316.915L333.688 52.6364H350.358L327.824 78.9545H324.381L314.767 89.9318ZM301.608 105V35.1818H316.131V105H301.608ZM334.335 105L318.926 82.1932L328.608 71.9318L351.347 105H334.335ZM379.19 106.023C373.804 106.023 369.168 104.932 365.281 102.75C361.418 100.545 358.44 97.4318 356.349 93.4091C354.259 89.3636 353.213 84.5795 353.213 79.0568C353.213 73.6705 354.259 68.9432 356.349 64.875C358.44 60.8068 361.384 57.6364 365.179 55.3636C368.997 53.0909 373.474 51.9545 378.611 51.9545C382.065 51.9545 385.281 52.5114 388.259 53.625C391.259 54.7159 393.872 56.3636 396.099 58.5682C398.349 60.7727 400.099 63.5455 401.349 66.8864C402.599 70.2045 403.224 74.0909 403.224 78.5455V82.5341H359.009V73.5341H389.554C389.554 71.4432 389.099 69.5909 388.19 67.9773C387.281 66.3636 386.02 65.1023 384.406 64.1932C382.815 63.2614 380.963 62.7955 378.849 62.7955C376.645 62.7955 374.69 63.3068 372.986 64.3295C371.304 65.3295 369.986 66.6818 369.031 68.3864C368.077 70.0682 367.588 71.9432 367.565 74.0114V82.5682C367.565 85.1591 368.043 87.3977 368.997 89.2841C369.974 91.1705 371.349 92.625 373.122 93.6477C374.895 94.6705 376.997 95.1818 379.429 95.1818C381.043 95.1818 382.52 94.9545 383.861 94.5C385.202 94.0455 386.349 93.3636 387.304 92.4545C388.259 91.5455 388.986 90.4318 389.486 89.1136L402.918 90C402.236 93.2273 400.838 96.0455 398.724 98.4545C396.634 100.841 393.929 102.705 390.611 104.045C387.315 105.364 383.509 106.023 379.19 106.023ZM412.702 105V52.6364H426.781V61.7727H427.327C428.281 58.5227 429.884 56.0682 432.134 54.4091C434.384 52.7273 436.974 51.8864 439.906 51.8864C440.634 51.8864 441.418 51.9318 442.259 52.0227C443.099 52.1136 443.838 52.2386 444.474 52.3977V65.2841C443.793 65.0795 442.849 64.8977 441.645 64.7386C440.44 64.5795 439.338 64.5 438.338 64.5C436.202 64.5 434.293 64.9659 432.611 65.8977C430.952 66.8068 429.634 68.0795 428.656 69.7159C427.702 71.3523 427.224 73.2386 427.224 75.375V105H412.702Z" fill="black"/>
<path d="M466.506 74.7273V105H451.983V52.6364H465.824V61.875H466.438C467.597 58.8295 469.54 56.4205 472.267 54.6477C474.994 52.8523 478.301 51.9545 482.188 51.9545C485.824 51.9545 488.994 52.75 491.699 54.3409C494.403 55.9318 496.506 58.2045 498.006 61.1591C499.506 64.0909 500.256 67.5909 500.256 71.6591V105H485.733V74.25C485.756 71.0455 484.938 68.5455 483.278 66.75C481.619 64.9318 479.335 64.0227 476.426 64.0227C474.472 64.0227 472.744 64.4432 471.244 65.2841C469.767 66.125 468.608 67.3523 467.767 68.9659C466.949 70.5568 466.528 72.4773 466.506 74.7273ZM535.361 106.023C530.065 106.023 525.486 104.898 521.622 102.648C517.781 100.375 514.815 97.2159 512.724 93.1705C510.634 89.1023 509.588 84.3864 509.588 79.0227C509.588 73.6136 510.634 68.8864 512.724 64.8409C514.815 60.7727 517.781 57.6136 521.622 55.3636C525.486 53.0909 530.065 51.9545 535.361 51.9545C540.656 51.9545 545.224 53.0909 549.065 55.3636C552.929 57.6136 555.906 60.7727 557.997 64.8409C560.088 68.8864 561.134 73.6136 561.134 79.0227C561.134 84.3864 560.088 89.1023 557.997 93.1705C555.906 97.2159 552.929 100.375 549.065 102.648C545.224 104.898 540.656 106.023 535.361 106.023ZM535.429 94.7727C537.838 94.7727 539.849 94.0909 541.463 92.7273C543.077 91.3409 544.293 89.4545 545.111 87.0682C545.952 84.6818 546.372 81.9659 546.372 78.9205C546.372 75.875 545.952 73.1591 545.111 70.7727C544.293 68.3864 543.077 66.5 541.463 65.1136C539.849 63.7273 537.838 63.0341 535.429 63.0341C532.997 63.0341 530.952 63.7273 529.293 65.1136C527.656 66.5 526.418 68.3864 525.577 70.7727C524.759 73.1591 524.349 75.875 524.349 78.9205C524.349 81.9659 524.759 84.6818 525.577 87.0682C526.418 89.4545 527.656 91.3409 529.293 92.7273C530.952 94.0909 532.997 94.7727 535.429 94.7727ZM598.429 52.6364V63.5455H566.895V52.6364H598.429ZM574.054 40.0909H588.577V88.9091C588.577 90.25 588.781 91.2955 589.19 92.0455C589.599 92.7727 590.168 93.2841 590.895 93.5795C591.645 93.875 592.509 94.0227 593.486 94.0227C594.168 94.0227 594.849 93.9659 595.531 93.8523C596.213 93.7159 596.736 93.6136 597.099 93.5455L599.384 104.352C598.656 104.58 597.634 104.841 596.315 105.136C594.997 105.455 593.395 105.648 591.509 105.716C588.009 105.852 584.94 105.386 582.304 104.318C579.69 103.25 577.656 101.591 576.202 99.3409C574.747 97.0909 574.031 94.25 574.054 90.8182V40.0909ZM631.19 106.023C625.804 106.023 621.168 104.932 617.281 102.75C613.418 100.545 610.44 97.4318 608.349 93.4091C606.259 89.3636 605.213 84.5795 605.213 79.0568C605.213 73.6705 606.259 68.9432 608.349 64.875C610.44 60.8068 613.384 57.6364 617.179 55.3636C620.997 53.0909 625.474 51.9545 630.611 51.9545C634.065 51.9545 637.281 52.5114 640.259 53.625C643.259 54.7159 645.872 56.3636 648.099 58.5682C650.349 60.7727 652.099 63.5455 653.349 66.8864C654.599 70.2045 655.224 74.0909 655.224 78.5455V82.5341H611.009V73.5341H641.554C641.554 71.4432 641.099 69.5909 640.19 67.9773C639.281 66.3636 638.02 65.1023 636.406 64.1932C634.815 63.2614 632.963 62.7955 630.849 62.7955C628.645 62.7955 626.69 63.3068 624.986 64.3295C623.304 65.3295 621.986 66.6818 621.031 68.3864C620.077 70.0682 619.588 71.9432 619.565 74.0114V82.5682C619.565 85.1591 620.043 87.3977 620.997 89.2841C621.974 91.1705 623.349 92.625 625.122 93.6477C626.895 94.6705 628.997 95.1818 631.429 95.1818C633.043 95.1818 634.52 94.9545 635.861 94.5C637.202 94.0455 638.349 93.3636 639.304 92.4545C640.259 91.5455 640.986 90.4318 641.486 89.1136L654.918 90C654.236 93.2273 652.838 96.0455 650.724 98.4545C648.634 100.841 645.929 102.705 642.611 104.045C639.315 105.364 635.509 106.023 631.19 106.023Z" fill="#00D984"/>
<g filter="url(#filter0_d_150_62)">
<rect width="149.25" height="138.808" rx="35" transform="matrix(0.999985 -0.0054277 -0.00541638 0.999985 0.751831 0.810059)" fill="#00D984"/>
</g>
<g filter="url(#filter1_d_150_62)">
<path d="M95.4999 30L118.815 26.104L125.5 46.5" stroke="white" stroke-width="8"/>
</g>
<path d="M33 31.6509V0.125717L56.4061 0V31.6509L44.8145 22.6838L33 31.6509Z" fill="white"/>
<g filter="url(#filter2_d_150_62)">
<path d="M39.3651 114.742L29.5241 120L29.5241 109L39.3651 114.742Z" fill="white"/>
</g>
<g filter="url(#filter3_d_150_62)">
<path d="M35.5 110L55.7901 73.6576L64.2788 90.0714L80 58L89.5 73.6576L116 30" stroke="white" stroke-width="8"/>
</g>
<defs>
<filter id="filter0_d_150_62" x="0.189087" y="0.189453" width="149.622" height="142.238" filterUnits="userSpaceOnUse" color-interpolation-filters="sRGB">
<feFlood flood-opacity="0" result="BackgroundImageFix"/>
<feColorMatrix in="SourceAlpha" type="matrix" values="0 0 0 0 0 0 0 0 0 0 0 0 0 0 0 0 0 0 127 0" result="hardAlpha"/>
<feMorphology radius="5" operator="erode" in="SourceAlpha" result="effect1_dropShadow_150_62"/>
<feOffset dy="4"/>
<feGaussianBlur stdDeviation="2"/>
<feComposite in2="hardAlpha" operator="out"/>
<feColorMatrix type="matrix" values="0 0 0 0 0 0 0 0 0 0 0 0 0 0 0 0 0 0 0.25 0"/>
<feBlend mode="normal" in2="BackgroundImageFix" result="effect1_dropShadow_150_62"/>
<feBlend mode="normal" in="SourceGraphic" in2="effect1_dropShadow_150_62" result="shape"/>
</filter>
<filter id="filter1_d_150_62" x="90.8406" y="21.5923" width="42.4604" height="34.1536" filterUnits="userSpaceOnUse" color-interpolation-filters="sRGB">
<feFlood flood-opacity="0" result="BackgroundImageFix"/>
<feColorMatrix in="SourceAlpha" type="matrix" values="0 0 0 0 0 0 0 0 0 0 0 0 0 0 0 0 0 0 127 0" result="hardAlpha"/>
<feOffset dy="4"/>
<feGaussianBlur stdDeviation="2"/>
<feComposite in2="hardAlpha" operator="out"/>
<feColorMatrix type="matrix" values="0 0 0 0 0 0 0 0 0 0 0 0 0 0 0 0 0 0 0.12 0"/>
<feBlend mode="normal" in2="BackgroundImageFix" result="effect1_dropShadow_150_62"/>
<feBlend mode="normal" in="SourceGraphic" in2="effect1_dropShadow_150_62" result="shape"/>
</filter>
<filter id="filter2_d_150_62" x="25.524" y="109" width="17.8411" height="19" filterUnits="userSpaceOnUse" color-interpolation-filters="sRGB">
<feFlood flood-opacity="0" result="BackgroundImageFix"/>
<feColorMatrix in="SourceAlpha" type="matrix" values="0 0 0 0 0 0 0 0 0 0 0 0 0 0 0 0 0 0 127 0" result="hardAlpha"/>
<feOffset dy="4"/>
<feGaussianBlur stdDeviation="2"/>
<feComposite in2="hardAlpha" operator="out"/>
<feColorMatrix type="matrix" values="0 0 0 0 0 0 0 0 0 0 0 0 0 0 0 0 0 0 0.12 0"/>
<feBlend mode="normal" in2="BackgroundImageFix" result="effect1_dropShadow_150_62"/>
<feBlend mode="normal" in="SourceGraphic" in2="effect1_dropShadow_150_62" result="shape"/>
</filter>
<filter id="filter3_d_150_62" x="28.0074" y="27.9246" width="95.412" height="92.0254" filterUnits="userSpaceOnUse" color-interpolation-filters="sRGB">
<feFlood flood-opacity="0" result="BackgroundImageFix"/>
<feColorMatrix in="SourceAlpha" type="matrix" values="0 0 0 0 0 0 0 0 0 0 0 0 0 0 0 0 0 0 127 0" result="hardAlpha"/>
<feOffset dy="4"/>
<feGaussianBlur stdDeviation="2"/>
<feComposite in2="hardAlpha" operator="out"/>
<feColorMatrix type="matrix" values="0 0 0 0 0 0 0 0 0 0 0 0 0 0 0 0 0 0 0.12 0"/>
<feBlend mode="normal" in2="BackgroundImageFix" result="effect1_dropShadow_150_62"/>
<feBlend mode="normal" in="SourceGraphic" in2="effect1_dropShadow_150_62" result="shape"/>
</filter>
</defs>
</svg>
