<svg width="402" height="67" viewBox="0 0 402 67" fill="none" xmlns="http://www.w3.org/2000/svg">
<path d="M103.19 57C101.05 57.4 98.95 57.57 96.89 57.51C94.85 57.47 93.02 57.1 91.4 56.4C89.78 55.68 88.55 54.55 87.71 53.01C86.97 51.61 86.58 50.18 86.54 48.72C86.5 47.26 86.48 45.61 86.48 43.77V15.6H93.68V43.35C93.68 44.65 93.69 45.79 93.71 46.77C93.75 47.75 93.96 48.55 94.34 49.17C95.06 50.37 96.21 51.04 97.79 51.18C99.37 51.32 101.17 51.24 103.19 50.94V57ZM80.6 30.27V24.6H103.19V30.27H80.6ZM110.757 19.68V13.05H117.987V19.68H110.757ZM110.757 57V24.6H117.987V57H110.757ZM141.043 57.9C137.703 57.9 134.853 57.16 132.493 55.68C130.133 54.18 128.323 52.14 127.063 49.56C125.823 46.98 125.193 44.06 125.173 40.8C125.193 37.48 125.843 34.54 127.123 31.98C128.423 29.4 130.263 27.38 132.643 25.92C135.023 24.44 137.853 23.7 141.133 23.7C144.813 23.7 147.923 24.63 150.463 26.49C153.023 28.33 154.693 30.85 155.473 34.05L148.273 36C147.713 34.26 146.783 32.91 145.483 31.95C144.183 30.97 142.703 30.48 141.043 30.48C139.163 30.48 137.613 30.93 136.393 31.83C135.173 32.71 134.273 33.93 133.693 35.49C133.113 37.05 132.823 38.82 132.823 40.8C132.823 43.88 133.513 46.37 134.893 48.27C136.273 50.17 138.323 51.12 141.043 51.12C142.963 51.12 144.473 50.68 145.573 49.8C146.693 48.92 147.533 47.65 148.093 45.99L155.473 47.64C154.473 50.94 152.723 53.48 150.223 55.26C147.723 57.02 144.663 57.9 141.043 57.9ZM161.425 57L161.485 13.8H168.805V40.2L180.655 24.6H189.685L177.115 40.8L190.765 57H181.195L168.805 41.4V57H161.425ZM207.914 57.9C204.634 57.9 201.754 57.19 199.274 55.77C196.794 54.35 194.854 52.38 193.454 49.86C192.074 47.34 191.384 44.44 191.384 41.16C191.384 37.62 192.064 34.55 193.424 31.95C194.784 29.33 196.674 27.3 199.094 25.86C201.514 24.42 204.314 23.7 207.494 23.7C210.854 23.7 213.704 24.49 216.044 26.07C218.404 27.63 220.154 29.84 221.294 32.7C222.434 35.56 222.864 38.93 222.584 42.81H215.414V40.17C215.394 36.65 214.774 34.08 213.554 32.46C212.334 30.84 210.414 30.03 207.794 30.03C204.834 30.03 202.634 30.95 201.194 32.79C199.754 34.61 199.034 37.28 199.034 40.8C199.034 44.08 199.754 46.62 201.194 48.42C202.634 50.22 204.734 51.12 207.494 51.12C209.274 51.12 210.804 50.73 212.084 49.95C213.384 49.15 214.384 48 215.084 46.5L222.224 48.66C220.984 51.58 219.064 53.85 216.464 55.47C213.884 57.09 211.034 57.9 207.914 57.9ZM196.754 42.81V37.35H219.044V42.81H196.754ZM229.278 57V24.6H235.668V32.49L234.888 31.47C235.288 30.39 235.818 29.41 236.478 28.53C237.158 27.63 237.968 26.89 238.908 26.31C239.708 25.77 240.588 25.35 241.548 25.05C242.528 24.73 243.528 24.54 244.548 24.48C245.568 24.4 246.558 24.44 247.518 24.6V31.35C246.558 31.07 245.448 30.98 244.188 31.08C242.948 31.18 241.828 31.53 240.828 32.13C239.828 32.67 239.008 33.36 238.368 34.2C237.748 35.04 237.288 36 236.988 37.08C236.688 38.14 236.538 39.29 236.538 40.53V57H229.278ZM275.653 57V41.4C275.653 40.38 275.583 39.25 275.443 38.01C275.303 36.77 274.973 35.58 274.453 34.44C273.953 33.28 273.193 32.33 272.173 31.59C271.173 30.85 269.813 30.48 268.093 30.48C267.173 30.48 266.263 30.63 265.363 30.93C264.463 31.23 263.643 31.75 262.903 32.49C262.183 33.21 261.603 34.21 261.163 35.49C260.723 36.75 260.503 38.37 260.503 40.35L256.213 38.52C256.213 35.76 256.743 33.26 257.803 31.02C258.883 28.78 260.463 27 262.543 25.68C264.623 24.34 267.183 23.67 270.223 23.67C272.623 23.67 274.603 24.07 276.163 24.87C277.723 25.67 278.963 26.69 279.883 27.93C280.803 29.17 281.483 30.49 281.923 31.89C282.363 33.29 282.643 34.62 282.763 35.88C282.903 37.12 282.973 38.13 282.973 38.91V57H275.653ZM253.183 57V24.6H259.633V34.65H260.503V57H253.183ZM304.584 57.9C301.344 57.9 298.514 57.17 296.094 55.71C293.674 54.25 291.794 52.24 290.454 49.68C289.134 47.1 288.474 44.14 288.474 40.8C288.474 37.4 289.154 34.42 290.514 31.86C291.874 29.3 293.764 27.3 296.184 25.86C298.604 24.42 301.404 23.7 304.584 23.7C307.844 23.7 310.684 24.43 313.104 25.89C315.524 27.35 317.404 29.37 318.744 31.95C320.084 34.51 320.754 37.46 320.754 40.8C320.754 44.16 320.074 47.13 318.714 49.71C317.374 52.27 315.494 54.28 313.074 55.74C310.654 57.18 307.824 57.9 304.584 57.9ZM304.584 51.12C307.464 51.12 309.604 50.16 311.004 48.24C312.404 46.32 313.104 43.84 313.104 40.8C313.104 37.66 312.394 35.16 310.974 33.3C309.554 31.42 307.424 30.48 304.584 30.48C302.644 30.48 301.044 30.92 299.784 31.8C298.544 32.66 297.624 33.87 297.024 35.43C296.424 36.97 296.124 38.76 296.124 40.8C296.124 43.94 296.834 46.45 298.254 48.33C299.694 50.19 301.804 51.12 304.584 51.12ZM346.354 57C344.214 57.4 342.114 57.57 340.054 57.51C338.014 57.47 336.184 57.1 334.564 56.4C332.944 55.68 331.714 54.55 330.874 53.01C330.134 51.61 329.744 50.18 329.704 48.72C329.664 47.26 329.644 45.61 329.644 43.77V15.6H336.844V43.35C336.844 44.65 336.854 45.79 336.874 46.77C336.914 47.75 337.124 48.55 337.504 49.17C338.224 50.37 339.374 51.04 340.954 51.18C342.534 51.32 344.334 51.24 346.354 50.94V57ZM323.764 30.27V24.6H346.354V30.27H323.764ZM366.41 57.9C363.13 57.9 360.25 57.19 357.77 55.77C355.29 54.35 353.35 52.38 351.95 49.86C350.57 47.34 349.88 44.44 349.88 41.16C349.88 37.62 350.56 34.55 351.92 31.95C353.28 29.33 355.17 27.3 357.59 25.86C360.01 24.42 362.81 23.7 365.99 23.7C369.35 23.7 372.2 24.49 374.54 26.07C376.9 27.63 378.65 29.84 379.79 32.7C380.93 35.56 381.36 38.93 381.08 42.81H373.91V40.17C373.89 36.65 373.27 34.08 372.05 32.46C370.83 30.84 368.91 30.03 366.29 30.03C363.33 30.03 361.13 30.95 359.69 32.79C358.25 34.61 357.53 37.28 357.53 40.8C357.53 44.08 358.25 46.62 359.69 48.42C361.13 50.22 363.23 51.12 365.99 51.12C367.77 51.12 369.3 50.73 370.58 49.95C371.88 49.15 372.88 48 373.58 46.5L380.72 48.66C379.48 51.58 377.56 53.85 374.96 55.47C372.38 57.09 369.53 57.9 366.41 57.9ZM355.25 42.81V37.35H377.54V42.81H355.25Z" fill="black"/>
<path d="M42.1732 1.76522L35.563 0L29.9925 20.7191L24.9633 2.01375L18.3529 3.77897L23.7866 23.9887L10.2525 10.5006L5.41338 15.3232L20.2586 30.1182L1.77123 25.1813L0 31.7691L20.1998 37.1633C19.9685 36.1691 19.8462 35.1333 19.8462 34.069C19.8462 26.5355 25.974 20.4285 33.5332 20.4285C41.0924 20.4285 47.2202 26.5355 47.2202 34.069C47.2202 35.1264 47.0994 36.1559 46.871 37.1442L65.2289 42.0464L67 35.4586L46.7199 30.043L65.2085 25.1057L63.4372 18.518L43.158 23.9332L56.692 10.4452L51.8529 5.62253L37.2136 20.2122L42.1732 1.76522Z" fill="#00D984"/>
<path d="M46.8517 37.2209C46.2849 39.6088 45.0884 41.7539 43.4467 43.4727L56.7462 56.7271L61.5853 51.9045L46.8517 37.2209Z" fill="#00D984"/>
<path d="M43.3124 43.6112C41.6509 45.3025 39.5512 46.5646 37.1965 47.215L42.0359 65.2146L48.6462 63.4493L43.3124 43.6112Z" fill="#00D984"/>
<path d="M36.9496 47.2809C35.8572 47.5607 34.7121 47.7095 33.5321 47.7095C32.2678 47.7095 31.0436 47.5386 29.8814 47.2189L25.0376 65.2349L31.6478 67L36.9496 47.2809Z" fill="#00D984"/>
<path d="M29.6477 47.1525C27.329 46.4697 25.2666 45.1915 23.639 43.4954L10.3068 56.7824L15.1458 61.6051L29.6477 47.1525Z" fill="#00D984"/>
<path d="M23.5291 43.378C21.9294 41.6711 20.7642 39.5546 20.2095 37.2036L1.7917 42.1219L3.56292 48.7097L23.5291 43.378Z" fill="#00D984"/>
</svg>
