<svg width="336" height="336" viewBox="0 0 336 336" fill="none" xmlns="http://www.w3.org/2000/svg">
<g filter="url(#filter0_ddiii_2020_9)">
<g clip-path="url(#clip0_2020_9)">
<rect x="3" width="330" height="330" fill="url(#paint0_linear_2020_9)"/>
<rect width="330" height="330" transform="translate(3)" fill="url(#paint1_linear_2020_9)"/>
<path d="M194.149 69.322L174.22 64L157.425 126.466L142.262 70.0713L122.333 75.3933L138.715 136.324L97.9104 95.6584L83.3209 110.198L128.078 154.804L72.3401 139.92L67 159.781L127.901 176.044C127.204 173.047 126.835 169.924 126.835 166.716C126.835 144.003 145.31 125.59 168.1 125.59C190.89 125.59 209.365 144.003 209.365 166.716C209.365 169.904 209.001 173.007 208.313 175.987L263.66 190.767L269 170.905L207.857 154.577L263.599 139.692L258.259 119.83L197.118 136.157L237.922 95.4915L223.333 80.9515L179.196 124.938L194.149 69.322Z" fill="url(#paint2_linear_2020_9)"/>
<path d="M208.254 176.218C206.546 183.417 202.938 189.885 197.989 195.067L238.085 235.028L252.675 220.488L208.254 176.218Z" fill="url(#paint3_linear_2020_9)"/>
<path d="M197.584 195.485C192.574 200.584 186.244 204.389 179.145 206.35L193.735 260.617L213.665 255.295L197.584 195.485Z" fill="url(#paint4_linear_2020_9)"/>
<path d="M178.4 206.548C175.107 207.392 171.654 207.841 168.097 207.841C164.285 207.841 160.594 207.325 157.09 206.361L142.486 260.678L162.416 266L178.4 206.548Z" fill="url(#paint5_linear_2020_9)"/>
<path d="M156.385 206.161C149.395 204.103 143.177 200.249 138.27 195.135L98.0741 235.195L112.664 249.735L156.385 206.161Z" fill="url(#paint6_linear_2020_9)"/>
<path d="M137.938 194.781C133.115 189.635 129.602 183.254 127.93 176.166L72.4019 190.994L77.7419 210.856L137.938 194.781Z" fill="url(#paint7_linear_2020_9)"/>
</g>
<rect x="4" y="1" width="328" height="328" stroke="url(#paint8_linear_2020_9)" stroke-width="2"/>
</g>
<defs>
<filter id="filter0_ddiii_2020_9" x="0" y="-3" width="336" height="339" filterUnits="userSpaceOnUse" color-interpolation-filters="sRGB">
<feFlood flood-opacity="0" result="BackgroundImageFix"/>
<feColorMatrix in="SourceAlpha" type="matrix" values="0 0 0 0 0 0 0 0 0 0 0 0 0 0 0 0 0 0 127 0" result="hardAlpha"/>
<feOffset dy="1"/>
<feGaussianBlur stdDeviation="0.5"/>
<feComposite in2="hardAlpha" operator="out"/>
<feColorMatrix type="matrix" values="0 0 0 0 0.162923 0 0 0 0 0.162923 0 0 0 0 0.162923 0 0 0 0.08 0"/>
<feBlend mode="normal" in2="BackgroundImageFix" result="effect1_dropShadow_2020_9"/>
<feColorMatrix in="SourceAlpha" type="matrix" values="0 0 0 0 0 0 0 0 0 0 0 0 0 0 0 0 0 0 127 0" result="hardAlpha"/>
<feMorphology radius="1" operator="erode" in="SourceAlpha" result="effect2_dropShadow_2020_9"/>
<feOffset dy="3"/>
<feGaussianBlur stdDeviation="2"/>
<feComposite in2="hardAlpha" operator="out"/>
<feColorMatrix type="matrix" values="0 0 0 0 0.164706 0 0 0 0 0.164706 0 0 0 0 0.164706 0 0 0 0.14 0"/>
<feBlend mode="normal" in2="effect1_dropShadow_2020_9" result="effect2_dropShadow_2020_9"/>
<feBlend mode="normal" in="SourceGraphic" in2="effect2_dropShadow_2020_9" result="shape"/>
<feColorMatrix in="SourceAlpha" type="matrix" values="0 0 0 0 0 0 0 0 0 0 0 0 0 0 0 0 0 0 127 0" result="hardAlpha"/>
<feOffset dy="-3"/>
<feGaussianBlur stdDeviation="1.5"/>
<feComposite in2="hardAlpha" operator="arithmetic" k2="-1" k3="1"/>
<feColorMatrix type="matrix" values="0 0 0 0 0 0 0 0 0 0 0 0 0 0 0 0 0 0 0.1 0"/>
<feBlend mode="normal" in2="shape" result="effect3_innerShadow_2020_9"/>
<feColorMatrix in="SourceAlpha" type="matrix" values="0 0 0 0 0 0 0 0 0 0 0 0 0 0 0 0 0 0 127 0" result="hardAlpha"/>
<feOffset dy="3"/>
<feGaussianBlur stdDeviation="1.5"/>
<feComposite in2="hardAlpha" operator="arithmetic" k2="-1" k3="1"/>
<feColorMatrix type="matrix" values="0 0 0 0 1 0 0 0 0 1 0 0 0 0 1 0 0 0 0.1 0"/>
<feBlend mode="normal" in2="effect3_innerShadow_2020_9" result="effect4_innerShadow_2020_9"/>
<feColorMatrix in="SourceAlpha" type="matrix" values="0 0 0 0 0 0 0 0 0 0 0 0 0 0 0 0 0 0 127 0" result="hardAlpha"/>
<feMorphology radius="1" operator="erode" in="SourceAlpha" result="effect5_innerShadow_2020_9"/>
<feOffset/>
<feComposite in2="hardAlpha" operator="arithmetic" k2="-1" k3="1"/>
<feColorMatrix type="matrix" values="0 0 0 0 0 0 0 0 0 0 0 0 0 0 0 0 0 0 0.2 0"/>
<feBlend mode="normal" in2="effect4_innerShadow_2020_9" result="effect5_innerShadow_2020_9"/>
</filter>
<linearGradient id="paint0_linear_2020_9" x1="23.8621" y1="17.069" x2="333" y2="347.069" gradientUnits="userSpaceOnUse">
<stop stop-color="#00D17F"/>
<stop offset="1" stop-color="#006B41"/>
</linearGradient>
<linearGradient id="paint1_linear_2020_9" x1="165" y1="4.09782e-06" x2="178.75" y2="330" gradientUnits="userSpaceOnUse">
<stop stop-color="white" stop-opacity="0"/>
<stop offset="1" stop-color="white" stop-opacity="0.12"/>
</linearGradient>
<linearGradient id="paint2_linear_2020_9" x1="168" y1="64" x2="168" y2="450" gradientUnits="userSpaceOnUse">
<stop stop-color="white"/>
<stop offset="1" stop-color="#999999"/>
</linearGradient>
<linearGradient id="paint3_linear_2020_9" x1="168" y1="64" x2="168" y2="450" gradientUnits="userSpaceOnUse">
<stop stop-color="white"/>
<stop offset="1" stop-color="#999999"/>
</linearGradient>
<linearGradient id="paint4_linear_2020_9" x1="168" y1="64" x2="168" y2="450" gradientUnits="userSpaceOnUse">
<stop stop-color="white"/>
<stop offset="1" stop-color="#999999"/>
</linearGradient>
<linearGradient id="paint5_linear_2020_9" x1="168" y1="64" x2="168" y2="450" gradientUnits="userSpaceOnUse">
<stop stop-color="white"/>
<stop offset="1" stop-color="#999999"/>
</linearGradient>
<linearGradient id="paint6_linear_2020_9" x1="168" y1="64" x2="168" y2="450" gradientUnits="userSpaceOnUse">
<stop stop-color="white"/>
<stop offset="1" stop-color="#999999"/>
</linearGradient>
<linearGradient id="paint7_linear_2020_9" x1="168" y1="64" x2="168" y2="450" gradientUnits="userSpaceOnUse">
<stop stop-color="white"/>
<stop offset="1" stop-color="#999999"/>
</linearGradient>
<linearGradient id="paint8_linear_2020_9" x1="168" y1="0" x2="168" y2="330" gradientUnits="userSpaceOnUse">
<stop stop-color="white" stop-opacity="0.12"/>
<stop offset="1" stop-color="white" stop-opacity="0"/>
</linearGradient>
<clipPath id="clip0_2020_9">
<rect x="3" width="330" height="330" fill="white"/>
</clipPath>
</defs>
</svg>
